<?xml version="1.0" encoding="UTF-8" standalone="no"?><!DOCTYPE svg PUBLIC "-//W3C//DTD SVG 1.1//EN" "http://www.w3.org/Graphics/SVG/1.1/DTD/svg11.dtd"><svg width="100%" height="100%" viewBox="0 0 2800 386" version="1.1" xmlns="http://www.w3.org/2000/svg" xmlns:xlink="http://www.w3.org/1999/xlink" xml:space="preserve" xmlns:serif="http://www.serif.com/" style="fill-rule:evenodd;clip-rule:evenodd;stroke-linejoin:round;stroke-miterlimit:2;"><rect id="Artboard1" x="0" y="0" width="2800" height="385.11" style="fill:none;"/><clipPath id="_clip1"><rect x="0" y="0" width="2800" height="385.11"/></clipPath><g clip-path="url(#_clip1)"><g><path d="M2806.58,18.739l-0,536.632l-2802.97,-0l-7.513,-494.977l229.754,0.131l180.601,49.824l200.27,121.72l78.041,13.541l348.592,-14.866l244.955,0l298.928,49.824l307.227,-66.436l298.914,-116.246l253.268,-29.062l135.96,-68.824l233.977,18.739Z" style="fill:#120c5c;fill-rule:nonzero;"/><path d="M1577.23,280.568l-94.013,59.158l120.995,-21.794l28.025,-31.132l155.688,-18.695l96.532,-53.973l-307.227,66.436Z" style="fill:url(#_Linear2);fill-rule:nonzero;"/><path d="M2183.37,97.886l-145.401,56.546l303.172,43.098l-126.628,-81.996l165.268,-38.806l132.099,-14.128l106.874,-9.112l-11.903,-29.811l95.163,-13.312l-129.416,-10.365l-389.228,97.886Z" style="fill:url(#_Linear3);fill-rule:nonzero;"/><path d="M257.5,90.623l-14.012,28.025l56.048,7.785l45.15,74.732l76.288,-23.354l43.593,12.454l142.148,41.804l-200.27,-121.72l-180.601,-49.824l31.656,30.098Z" style="fill:url(#_Linear4);fill-rule:nonzero;"/></g></g><defs><linearGradient id="_Linear2" x1="0" y1="0" x2="1" y2="0" gradientUnits="userSpaceOnUse" gradientTransform="matrix(401.24,0,0,401.24,1483.22,276.929)"><stop offset="0" style="stop-color:#354aef;stop-opacity:1"/><stop offset="1" style="stop-color:#1f1ca1;stop-opacity:1"/></linearGradient><linearGradient id="_Linear3" x1="0" y1="0" x2="1" y2="0" gradientUnits="userSpaceOnUse" gradientTransform="matrix(664.046,0,0,664.046,2037.97,98.7653)"><stop offset="0" style="stop-color:#354aef;stop-opacity:1"/><stop offset="1" style="stop-color:#1f1ca1;stop-opacity:1"/></linearGradient><linearGradient id="_Linear4" x1="0" y1="0" x2="1" y2="0" gradientUnits="userSpaceOnUse" gradientTransform="matrix(380.871,0,0,380.871,225.844,146.297)"><stop offset="0" style="stop-color:#354aef;stop-opacity:1"/><stop offset="1" style="stop-color:#1f1ca1;stop-opacity:1"/></linearGradient></defs></svg>